<svg xmlns="http://www.w3.org/2000/svg" viewBox="103.42 133.73 206.67 162.23"><linearGradient id="grad1" x1="0%" y1="0%" x2="100%" y2="0%"><stop offset="0%" style="stop-color:#00ffff;stop-opacity:1"/><stop offset="100%" style="stop-color:#ff00ff;stop-opacity:1"/></linearGradient><path fill="url(#grad1)" d="M293.47376448251083,260.1988463110946C285.16438762316443,270.5243042242639,270.4745801128308,276.19488709616917,259.4056674826666,281.9527474790159C248.33675485250245,287.7106078618626,238.0518725434461,292.9909199229812,227.06028870152588,294.74600860817486C216.06870485960565,296.5010972933685,202.7748609612372,296.82115940755443,193.45616443114523,292.4832795901776C184.13746790105324,288.1453997728007,184.9134793421159,272.8423750266347,171.14810952097403,268.7187297039138C157.38273969983217,264.5950843811929,121.4356432576339,275.86119593783764,110.86394550429412,267.741407653852C100.29224775095435,259.6216193698663,102.71256315300334,233.50334829052161,107.71792300093539,220C112.72328284886743,206.49665170947839,131.77130438329615,196.65545832848548,140.8961045918864,186.72131791072238C150.02090480047664,176.78717749295927,154.09757310091717,168.64172146474561,162.46672425247678,160.39515749342138C170.8358754040364,152.14859352209714,180.05297973288648,141.04671501708754,191.11101150124398,137.24193408277705C202.16904326960147,133.43715314846656,219.34425280111338,131.70162176522518,228.81491486262175,137.56647188755846C238.2855769241301,143.43132200989174,241.1525089865096,163.46851213024388,247.93498387029416,172.43103481677673C254.71745875407873,181.39355750330958,259.2886067039208,183.41344714288508,269.5097641653292,191.34160800675562C279.73092162673765,199.26976887062617,305.2679285858813,208.5237936159435,309.2619286387449,220C313.2559286916085,231.4762063840565,301.78314134185723,249.87338839792528,293.47376448251083,260.1988463110946" stroke="none" stroke-width="3"/></svg>